<svg width="321" height="176" viewBox="0 0 321 176" fill="none" xmlns="http://www.w3.org/2000/svg">
<g clip-path="url(#clip0)">
<path d="M70.3777 119.972L82.3529 117.953L69.1866 141.382C69.1866 141.382 90.335 129.667 92.3296 129.667C94.3241 129.667 113.882 113.509 117.871 111.49C121.86 109.47 136.625 96.5435 142.213 93.7158C147.801 90.8882 156.982 90.8882 187.716 111.086C195.702 116.337 155.403 101.391 155.403 101.391C155.403 101.391 180.545 107.046 188.915 121.588C188.915 121.588 165.764 98.9671 143.412 104.218C121.06 109.47 137.029 110.682 137.029 110.682C137.029 110.682 147.805 105.026 158.181 108.662C158.181 108.662 133.835 110.278 123.862 121.588C117.261 129.077 103.909 121.588 91.1587 145.017L90.3996 152.288H-16.9979C-16.9979 152.288 -9.43966 140.574 7.71971 133.707C24.8791 126.84 9.33471 124.82 26.4779 118.761C26.4779 118.761 26.0742 125.224 30.467 122.8C34.8598 120.376 39.2485 116.337 39.2485 116.337C39.2485 116.337 30.0713 132.495 39.2485 125.628C48.4258 118.761 48.4096 103.815 67.7896 103.815C67.7896 103.815 79.4984 103.007 85.9584 106.642C85.9584 106.642 61.3296 104.622 58.5034 115.529C58.5034 115.529 80.7096 106.238 85.9584 111.893C85.9584 111.893 75.3923 113.509 70.3777 119.972Z" fill="white"/>
<path d="M278.951 152.288H213.947C213.947 152.288 210.313 136.13 202.238 130.475C202.238 130.475 209.102 133.303 216.773 141.382C224.445 149.461 235.75 146.633 235.75 146.633C235.75 146.633 215.966 129.263 213.14 122.396C213.14 122.396 212.736 126.84 216.773 132.091C216.773 132.091 205.872 112.701 192.145 103.815C192.145 103.815 205.468 111.893 211.928 103.815C218.388 95.7356 223.637 92.504 223.637 92.504C223.637 92.504 215.562 100.987 220.003 103.815C220.003 103.815 205.065 105.834 211.525 113.509C217.985 121.184 230.097 123.204 235.346 122.396C235.346 122.396 230.905 128.051 222.022 125.224C213.14 122.396 235.346 126.84 251.496 140.17C251.496 140.17 248.266 126.436 239.787 118.357C239.787 118.357 249.881 113.509 278.951 152.288Z" fill="white"/>
</g>
<defs>
<clipPath id="clip0">
<rect width="323" height="176" fill="white"/>
</clipPath>
</defs>
</svg>
