<svg width="241" height="61" viewBox="0 0 241 61" fill="none" xmlns="http://www.w3.org/2000/svg">
<path d="M60.7906 27.9724L71.1345 25.9527L59.7618 49.3817C59.7618 49.3817 78.0293 37.6672 79.7522 37.6672C81.475 37.6672 98.3684 21.5093 101.814 19.4895C105.26 17.4698 118.014 4.54346 122.84 1.71583C127.667 -1.1118 135.598 -1.1118 162.144 19.0856C169.043 24.3369 134.234 9.39084 134.234 9.39084C134.234 9.39084 155.951 15.0461 163.18 29.5882C163.18 29.5882 143.183 6.96715 123.876 12.2185C104.569 17.4698 118.362 18.6816 118.362 18.6816C118.362 18.6816 127.67 13.0264 136.633 16.6619C136.633 16.6619 115.604 18.2777 106.99 29.5882C101.287 37.0774 89.7543 29.5882 78.7408 53.0172L78.0851 60.2882H-14.6824C-14.6824 60.2882 -8.15377 48.5738 6.6681 41.7066C21.49 34.8395 8.0631 32.8198 22.871 26.7606C22.871 26.7606 22.5223 33.2237 26.3167 30.8001C30.1111 28.3764 33.902 24.3369 33.902 24.3369C33.902 24.3369 25.9749 40.4948 33.902 33.6277C41.8291 26.7606 41.8151 11.8145 58.5551 11.8145C58.5551 11.8145 68.6689 11.0066 74.2489 14.6422C74.2489 14.6422 52.9751 12.6224 50.5339 23.529C50.5339 23.529 69.7151 14.2382 74.2489 19.8935C74.2489 19.8935 65.1221 21.5093 60.7906 27.9724Z" fill="white"/>
<path d="M240.951 60.2882H184.803C184.803 60.2882 181.664 44.1303 174.689 38.4751C174.689 38.4751 180.618 41.3027 187.244 49.3817C193.87 57.4606 203.635 54.633 203.635 54.633C203.635 54.633 186.546 37.2632 184.105 30.3961C184.105 30.3961 183.756 34.8395 187.244 40.0909C187.244 40.0909 177.828 20.7014 165.97 11.8145C165.97 11.8145 177.479 19.8935 183.059 11.8145C188.639 3.73558 193.173 0.503998 193.173 0.503998C193.173 0.503998 186.198 8.9869 190.034 11.8145C190.034 11.8145 177.13 13.8343 182.71 21.5093C188.29 29.1843 198.753 31.204 203.286 30.3961C203.286 30.3961 199.45 36.0514 191.778 33.2238C184.105 30.3961 203.286 34.8395 217.236 48.1698C217.236 48.1698 214.446 34.4356 207.123 26.3566C207.123 26.3566 215.841 21.5093 240.951 60.2882Z" fill="white"/>
</svg>
